# xmcd
#
# Track frame offsets:
# 150
# 4107
# 31977
# 57393
# 80483
# 101678
# 126011
# 147966
# 173692
# 206435
# 233981
# 253465
#
# Disc length: 3562 seconds
#
# Revision: 0
# Processed by: cddbd v1.5.1PL0 Copyright (c) Steve Scherf et al.
# Submitted via: Audion 2.6.0 (http://www.panic.com/audion/)
#
DISCID=a30de80c
DTITLE=Kamran and Hooman - Kamran and Hooman Live In Dubai
DYEAR=1900
DGENRE=
TTITLE0=Introduction
TTITLE1=Rendez-Vous
TTITLE2=Haramsara
TTITLE3=Nassle Eshgh
TTITLE4=Naro
TTITLE5=Atash
TTITLE6=Lili
TTITLE7=Ey Yaar
TTITLE8=Begoo Mano Kam Dari
TTITLE9=My Song
TTITLE10=Cheshmberaa
TTITLE11=Aftab
EXTD=
EXTT0=
EXTT1=
EXTT2=
EXTT3=
EXTT4=
EXTT5=
EXTT6=
EXTT7=
EXTT8=
EXTT9=
EXTT10=
EXTT11=
PLAYORDER=
